<svg viewBox="0 0 69 78" xmlns="http://www.w3.org/2000/svg" xmlns:xlink="http://www.w3.org/1999/xlink"><defs><path d="M5.863 13.143c-.746 0-1.407-.113-1.983-.338a3.9 3.9 0 01-1.45-.962 4.1 4.1 0 01-.883-1.495 5.938 5.938 0 01-.3-1.937v-.104c0-.702.115-1.343.345-1.924a4.53 4.53 0 01.956-1.502c.407-.42.888-.745 1.443-.975a4.711 4.711 0 011.82-.344 5.61 5.61 0 011.534.202c.476.134.892.34 1.248.617.355.277.645.624.87 1.04.226.416.365.906.417 1.469H7.89c-.077-.59-.285-1.036-.623-1.339-.338-.303-.82-.455-1.443-.455-.382 0-.728.074-1.04.221a2.258 2.258 0 00-.8.63 2.944 2.944 0 00-.513 1.008 4.59 4.59 0 00-.182 1.339v.104c0 1.005.22 1.785.663 2.34.442.555 1.07.832 1.885.832.615 0 1.12-.156 1.514-.468.394-.312.635-.78.722-1.404h1.91c-.06.572-.203 1.072-.428 1.502a3.399 3.399 0 01-.878 1.079c-.36.29-.778.506-1.254.65a5.409 5.409 0 01-1.56.214zm5.499-9.698h1.742V13h-1.742V3.445zm6.656 9.698c-.512 0-.982-.082-1.41-.247a3.208 3.208 0 01-1.859-1.794 3.673 3.673 0 01-.267-1.43v-.104c0-.529.088-1.01.266-1.443.178-.433.427-.804.748-1.112a3.43 3.43 0 011.124-.715c.43-.169.9-.253 1.41-.253.503 0 .97.082 1.398.247a3.194 3.194 0 011.859 1.8c.178.43.267.908.267 1.437v.104c0 .537-.09 1.02-.267 1.45a3.262 3.262 0 01-.74 1.104 3.245 3.245 0 01-1.125.709 3.92 3.92 0 01-1.404.247zm.013-1.339c.546 0 .972-.193 1.28-.579.308-.385.462-.912.462-1.579v-.091c0-.676-.154-1.205-.462-1.586-.308-.381-.734-.572-1.28-.572-.555 0-.988.186-1.3.559-.312.373-.468.897-.468 1.573v.104c0 .676.151 1.207.455 1.593.303.385.74.578 1.313.578zm7.384 1.339c-.902 0-1.604-.195-2.106-.585-.503-.39-.772-.953-.806-1.69h1.638c.043.33.156.583.338.76.182.178.49.267.923.267.762 0 1.144-.269 1.144-.806a.596.596 0 00-.338-.559c-.226-.121-.585-.221-1.08-.299a7.074 7.074 0 01-1.143-.26 2.37 2.37 0 01-.767-.403 1.453 1.453 0 01-.436-.591 2.28 2.28 0 01-.136-.839c0-.347.073-.65.22-.91a2.04 2.04 0 01.592-.656 2.63 2.63 0 01.839-.397c.312-.087.637-.13.975-.13.364 0 .704.037 1.02.11.316.074.594.193.832.358.238.165.436.38.592.644.156.264.255.591.299.981h-1.612c-.061-.295-.178-.511-.351-.65-.174-.139-.434-.208-.78-.208-.321 0-.57.067-.748.201a.642.642 0 00-.266.54.55.55 0 00.292.507c.195.113.548.212 1.06.299.416.06.786.136 1.111.228.325.09.598.214.82.37.22.156.39.353.506.591.117.239.176.54.176.904 0 .728-.245 1.28-.735 1.658-.49.377-1.18.565-2.073.565zm7.28 0c-.512 0-.98-.078-1.404-.234a3.142 3.142 0 01-1.105-.683 3.096 3.096 0 01-.728-1.092 3.84 3.84 0 01-.26-1.449v-.104c0-.529.086-1.012.26-1.45a3.25 3.25 0 01.721-1.118 3.228 3.228 0 011.092-.715c.42-.169.878-.253 1.372-.253.424 0 .834.065 1.228.195s.743.336 1.047.617c.303.282.543.642.721 1.08.178.437.267.96.267 1.566v.481h-4.94c.034.607.203 1.072.507 1.398.303.325.728.487 1.274.487.45 0 .793-.087 1.027-.26a1.14 1.14 0 00.442-.728h1.664c-.113.737-.445 1.298-.995 1.684-.55.385-1.28.578-2.19.578zm1.495-4.264c-.035-.546-.185-.949-.449-1.209-.264-.26-.63-.39-1.098-.39-.451 0-.82.14-1.105.422-.286.282-.468.674-.546 1.177h3.198z" id="a"/></defs><g fill="none" fill-rule="evenodd"><path d="M53.755 61.962H8.932a8 8 0 01-8-8V8.232a8 8 0 018-8h59.712v75.485c0 1.114-1.55 1.914-2.34.971-4.19-4.908-8.371-9.817-12.549-14.726z" fill="#0046BE" fill-rule="nonzero"/><path d="M67.644 1.233H8.932a7 7 0 00-7 7v45.729a7 7 0 007 7h45.285l.3.352c4.937 5.8 8.798 10.333 12.553 14.732.126.151.574-.053.574-.329V1.233z" stroke="#E0E6EF" stroke-width="2"/><g transform="translate(15.418 39)"><use fill="#000" xlink:href="#a"/><use fill="#FFF" xlink:href="#a"/></g><path fill="#FFF" fill-rule="nonzero" d="M39.367 15.164l-4.765 4.767-4.768-4.767-3.025 3.026 4.768 4.766-4.768 4.768 3.025 3.024 4.768-4.766 4.765 4.766 3.027-3.024-4.768-4.768 4.768-4.766z"/></g></svg>